<?xml version="1.0" standalone="no"?><!-- Generator: Gravit.io --><svg xmlns="http://www.w3.org/2000/svg" xmlns:xlink="http://www.w3.org/1999/xlink" style="isolation:isolate" viewBox="0 0 113.38582677165356 127.55905511811025" width="113.38582677165356" height="127.55905511811025"><path d=" M 69.50895579268291 28.181831173780495 L 67.62419016768291 28.181831173780495 L 63.78629954268291 21.902534298780495 L 59.88004954268291 28.181831173780495 L 58.12223704268291 28.181831173780495 L 62.86833079268291 20.720893673780495 L 58.44450266768291 13.904487423780495 L 60.28044016768291 13.904487423780495 L 63.82536204268291 19.558784298780495 L 67.39958079268291 13.904487423780495 L 69.16715891768291 13.904487423780495 L 64.74333079268291 20.662299923780495 L 69.50895579268291 28.181831173780495 Z  M 52.77067454268291 28.181831173780495 L 50.88590891768291 28.181831173780495 L 47.04801829268291 21.902534298780495 L 43.14176829268291 28.181831173780495 L 41.38395579268291 28.181831173780495 L 46.13004954268291 20.720893673780495 L 41.70622141768291 13.904487423780495 L 43.54215891768291 13.904487423780495 L 47.08708079268291 19.558784298780495 L 50.66129954268291 13.904487423780495 L 52.42887766768291 13.904487423780495 L 48.00504954268291 20.662299923780495 L 52.77067454268291 28.181831173780495 Z  M 36.03239329268291 28.181831173780495 L 34.14762766768291 28.181831173780495 L 30.30973704268291 21.902534298780495 L 26.40348704268291 28.181831173780495 L 24.64567454268291 28.181831173780495 L 29.39176829268291 20.720893673780495 L 24.96794016768291 13.904487423780495 L 26.80387766768291 13.904487423780495 L 30.34879954268291 19.558784298780495 L 33.92301829268291 13.904487423780495 L 35.69059641768291 13.904487423780495 L 31.26676829268291 20.662299923780495 L 36.03239329268291 28.181831173780495 Z  M 19.29411204268291 28.181831173780495 L 17.40934641768291 28.181831173780495 L 13.571455792682912 21.902534298780495 L 9.665205792682912 28.181831173780495 L 7.907393292682912 28.181831173780495 L 12.653487042682912 20.720893673780495 L 8.229658917682912 13.904487423780495 L 10.065596417682912 13.904487423780495 L 13.610518292682912 19.558784298780495 L 17.18473704268291 13.904487423780495 L 18.95231516768291 13.904487423780495 L 14.528487042682912 20.662299923780495 L 19.29411204268291 28.181831173780495 Z " fill-rule="evenodd" fill="rgb(0,0,0)"/><path d=" M 64.70426829268291 65.42573361280489 L 63.12223704268291 65.42573361280489 L 63.12223704268291 55.24995236280489 Q 63.12223704268291 53.98042111280489 63.20036204268291 52.84760861280489 Q 62.99528391768291 53.05268673780489 62.74137766768291 53.27729611280489 Q 62.48747141768291 53.50190548780489 60.41715891768291 55.18159298780489 L 59.55778391768291 54.06831173780489 L 63.33708079268291 51.14838986280489 L 64.70426829268291 51.14838986280489 L 64.70426829268291 65.42573361280489 Z  M 50.91520579268291 54.50776486280489 Q 50.91520579268291 55.87495236280489 50.14860423018291 56.74409298780489 Q 49.38200266768291 57.61323361280489 47.97575266768291 57.90620236280489 L 47.97575266768291 57.98432736280489 Q 49.69450266768291 58.19917111280489 50.52458079268291 59.07807736280489 Q 51.35465891768291 59.95698361280489 51.35465891768291 61.38276486280489 Q 51.35465891768291 63.42378048780489 49.93864329268291 64.52241330030489 Q 48.52262766768291 65.62104611280489 45.91520579268291 65.62104611280489 Q 44.78239329268291 65.62104611280489 43.84001048018291 65.45014767530489 Q 42.89762766768291 65.27924923780489 42.00895579268291 64.84956173780489 L 42.00895579268291 63.30659298780489 Q 42.93669016768291 63.76557736280489 43.98649485518291 64.00483517530489 Q 45.03629954268291 64.24409298780489 45.97379954268291 64.24409298780489 Q 49.67497141768291 64.24409298780489 49.67497141768291 61.34370236280489 Q 49.67497141768291 58.74604611280489 45.59294016768291 58.74604611280489 L 44.18669016768291 58.74604611280489 L 44.18669016768291 57.34956173780489 L 45.61247141768291 57.34956173780489 Q 47.28239329268291 57.34956173780489 48.25895579268291 56.61225705030489 Q 49.23551829268291 55.87495236280489 49.23551829268291 54.56635861280489 Q 49.23551829268291 53.52143673780489 48.51774485518291 52.92573361280489 Q 47.79997141768291 52.33003048780489 46.56950266768291 52.33003048780489 Q 45.63200266768291 52.33003048780489 44.80192454268291 52.58393673780489 Q 43.97184641768291 52.83784298780489 42.90739329268291 53.52143673780489 L 42.08708079268291 52.42768673780489 Q 42.96598704268291 51.73432736280489 44.11344798018291 51.33881955030489 Q 45.26090891768291 50.94331173780489 46.53044016768291 50.94331173780489 Q 48.61051829268291 50.94331173780489 49.76286204268291 51.89546017530489 Q 50.91520579268291 52.84760861280489 50.91520579268291 54.50776486280489 Z  M 35.49528391768291 62.14448361280489 L 33.37614329268291 62.14448361280489 L 33.37614329268291 65.42573361280489 L 31.82340891768291 65.42573361280489 L 31.82340891768291 62.14448361280489 L 24.88004954268291 62.14448361280489 L 24.88004954268291 60.72846798780489 L 31.65739329268291 51.07026486280489 L 33.37614329268291 51.07026486280489 L 33.37614329268291 60.66987423780489 L 35.49528391768291 60.66987423780489 L 35.49528391768291 62.14448361280489 Z  M 31.82340891768291 60.66987423780489 L 31.82340891768291 55.92378048780489 Q 31.82340891768291 54.52729611280489 31.92106516768291 52.76948361280489 L 31.84294016768291 52.76948361280489 Q 31.37419016768291 53.70698361280489 30.96403391768291 54.32221798780489 L 26.50114329268291 60.66987423780489 L 31.82340891768291 60.66987423780489 Z  M 18.26872141768291 58.26753048780489 Q 18.26872141768291 61.96870236280489 17.10172923018291 63.79487423780489 Q 15.934737042682912 65.62104611280489 13.532393292682912 65.62104611280489 Q 11.227705792682912 65.62104611280489 10.026533917682912 63.75092892530489 Q 8.825362042682912 61.88081173780489 8.825362042682912 58.26753048780489 Q 8.825362042682912 54.53706173780489 9.987471417682912 52.73042111280489 Q 11.149580792682912 50.92378048780489 13.532393292682912 50.92378048780489 Q 15.856612042682912 50.92378048780489 17.06266673018291 52.80854611280489 Q 18.26872141768291 54.69331173780489 18.26872141768291 58.26753048780489 Z  M 10.465987042682912 58.26753048780489 Q 10.465987042682912 61.38276486280489 11.198408917682912 62.80366330030489 Q 11.930830792682912 64.22456173780489 13.532393292682912 64.22456173780489 Q 15.153487042682912 64.22456173780489 15.881026105182912 62.78413205030489 Q 16.60856516768291 61.34370236280489 16.60856516768291 58.26753048780489 Q 16.60856516768291 55.19135861280489 15.881026105182912 53.76069455030489 Q 15.153487042682912 52.33003048780489 13.532393292682912 52.33003048780489 Q 11.930830792682912 52.33003048780489 11.198408917682912 53.74116330030489 Q 10.465987042682912 55.15229611280489 10.465987042682912 58.26753048780489 Z " fill-rule="evenodd" fill="rgb(0,0,0)"/><path d=" M 58.86442454268291 106.49294969512195 Q 58.86442454268291 102.28396532012195 60.50016673018291 100.19900438262195 Q 62.13590891768291 98.11404344512195 65.33903391768291 98.11404344512195 Q 66.44254954268291 98.11404344512195 67.07731516768291 98.29959032012195 L 67.07731516768291 99.69607469512195 Q 66.32536204268291 99.45193407012195 65.35856516768291 99.45193407012195 Q 63.06364329268291 99.45193407012195 61.85270579268291 100.88259813262195 Q 60.64176829268291 102.31326219512195 60.52458079268291 105.37966844512195 L 60.64176829268291 105.37966844512195 Q 61.71598704268291 103.69998094512195 64.04020579268291 103.69998094512195 Q 65.96403391768291 103.69998094512195 67.07243235518291 104.86209032012195 Q 68.18083079268291 106.02419969512195 68.18083079268291 108.01638719512195 Q 68.18083079268291 110.24294969512195 66.96501048018291 111.51736375762195 Q 65.74919016768291 112.79177782012195 63.67887766768291 112.79177782012195 Q 61.46208079268291 112.79177782012195 60.16325266768291 111.12673875762195 Q 58.86442454268291 109.46169969512195 58.86442454268291 106.49294969512195 Z  M 63.65934641768291 111.41482469512195 Q 65.04606516768291 111.41482469512195 65.81266673018291 110.54080125762195 Q 66.57926829268291 109.66677782012195 66.57926829268291 108.01638719512195 Q 66.57926829268291 106.60037157012195 65.86637766768291 105.78982469512195 Q 65.15348704268291 104.97927782012195 63.73747141768291 104.97927782012195 Q 62.85856516768291 104.97927782012195 62.12614329268291 105.34060594512195 Q 61.39372141768291 105.70193407012195 60.95915110518291 106.33669969512195 Q 60.52458079268291 106.97146532012195 60.52458079268291 107.65505907012195 Q 60.52458079268291 108.66091844512195 60.91520579268291 109.53005907012195 Q 61.30583079268291 110.39919969512195 62.02360423018291 110.90701219512195 Q 62.74137766768291 111.41482469512195 63.65934641768291 111.41482469512195 Z  M 52.12614329268291 109.31521532012195 L 50.00700266768291 109.31521532012195 L 50.00700266768291 112.59646532012195 L 48.45426829268291 112.59646532012195 L 48.45426829268291 109.31521532012195 L 41.51090891768291 109.31521532012195 L 41.51090891768291 107.89919969512195 L 48.28825266768291 98.24099657012195 L 50.00700266768291 98.24099657012195 L 50.00700266768291 107.84060594512195 L 52.12614329268291 107.84060594512195 L 52.12614329268291 109.31521532012195 Z  M 48.45426829268291 107.84060594512195 L 48.45426829268291 103.09451219512195 Q 48.45426829268291 101.69802782012195 48.55192454268291 99.94021532012195 L 48.47379954268291 99.94021532012195 Q 48.00504954268291 100.87771532012195 47.59489329268291 101.49294969512195 L 43.13200266768291 107.84060594512195 L 48.45426829268291 107.84060594512195 Z  M 31.44254954268291 112.59646532012195 L 29.86051829268291 112.59646532012195 L 29.86051829268291 102.42068407012195 Q 29.86051829268291 101.15115282012195 29.93864329268291 100.01834032012195 Q 29.73356516768291 100.22341844512195 29.47965891768291 100.44802782012195 Q 29.22575266768291 100.67263719512195 27.15544016768291 102.35232469512195 L 26.29606516768291 101.23904344512195 L 30.07536204268291 98.31912157012195 L 31.44254954268291 98.31912157012195 L 31.44254954268291 112.59646532012195 Z  M 18.26872141768291 105.43826219512195 Q 18.26872141768291 109.13943407012195 17.10172923018291 110.96560594512195 Q 15.934737042682912 112.79177782012195 13.532393292682912 112.79177782012195 Q 11.227705792682912 112.79177782012195 10.026533917682912 110.92166063262195 Q 8.825362042682912 109.05154344512195 8.825362042682912 105.43826219512195 Q 8.825362042682912 101.70779344512195 9.987471417682912 99.90115282012195 Q 11.149580792682912 98.09451219512195 13.532393292682912 98.09451219512195 Q 15.856612042682912 98.09451219512195 17.06266673018291 99.97927782012195 Q 18.26872141768291 101.86404344512195 18.26872141768291 105.43826219512195 Z  M 10.465987042682912 105.43826219512195 Q 10.465987042682912 108.55349657012195 11.198408917682912 109.97439500762195 Q 11.930830792682912 111.39529344512195 13.532393292682912 111.39529344512195 Q 15.153487042682912 111.39529344512195 15.881026105182912 109.95486375762195 Q 16.60856516768291 108.51443407012195 16.60856516768291 105.43826219512195 Q 16.60856516768291 102.36209032012195 15.881026105182912 100.93142625762195 Q 15.153487042682912 99.50076219512195 13.532393292682912 99.50076219512195 Q 11.930830792682912 99.50076219512195 11.198408917682912 100.91189500762195 Q 10.465987042682912 102.32302782012195 10.465987042682912 105.43826219512195 Z " fill-rule="evenodd" fill="rgb(0,0,0)"/><path d=" M 81.95121951219511 107.60975609756099 C 101.92682926829264 105.5609756097561 105.51219512195104 30.268292682926813 83.48780487804868 23.097560975609753 L 96.29268292682917 21.04878048780489 L 84 33.853658536585414 L 84 23.60975609756099" fill="none" vector-effect="non-scaling-stroke" stroke-width="1" stroke="rgb(0,0,0)" stroke-linejoin="miter" stroke-linecap="square" stroke-miterlimit="3"/><path d=" M 107.78994146434407 72.86326934070128 Q 107.78994146434407 73.91795684070128 107.06972662059407 74.50145293445128 Q 106.34951177684407 75.08494902820128 105.03115240184407 75.08494902820128 Q 103.71279302684407 75.08494902820128 102.98281255809407 74.49657012195128 Q 102.25283208934407 73.90819121570128 102.25283208934407 72.86326934070128 Q 102.25283208934407 72.34080840320128 102.44570318309407 71.90867949695128 Q 102.63857427684407 71.47655059070128 103.03896490184407 71.18358184070128 L 103.03896490184407 71.12498809070128 L 102.35048833934407 70.95408965320128 L 102.35048833934407 70.37303496570128 L 109.94814458934407 70.37303496570128 L 109.94814458934407 71.18358184070128 L 108.10244146434407 71.18358184070128 Q 107.48232427684407 71.18358184070128 106.98916021434407 71.14451934070128 L 106.98916021434407 71.18358184070128 Q 107.78994146434407 71.74998809070128 107.78994146434407 72.86326934070128 Z  M 107.11123052684407 72.74608184070128 Q 107.11123052684407 71.91600371570128 106.63515630809407 71.54979277820128 Q 106.15908208934407 71.18358184070128 105.03115240184407 71.18358184070128 Q 103.90322271434407 71.18358184070128 103.41738287059407 71.55955840320128 Q 102.93154302684407 71.93553496570128 102.93154302684407 72.76561309070128 Q 102.93154302684407 73.51268340320128 103.47597662059407 73.87889434070128 Q 104.02041021434407 74.24510527820128 105.04091802684407 74.24510527820128 Q 106.08583990184407 74.24510527820128 106.59853521434407 73.87889434070128 Q 107.11123052684407 73.51268340320128 107.11123052684407 72.74608184070128 Z  M 102.25283208934407 78.76170684070128 Q 102.25283208934407 77.57518340320128 102.97548833934407 76.88914824695128 Q 103.69814458934407 76.20311309070128 104.98232427684407 76.20311309070128 Q 106.27626958934407 76.20311309070128 107.03798833934407 76.84032012195128 Q 107.79970708934407 77.47752715320128 107.79970708934407 78.55174590320128 Q 107.79970708934407 79.55760527820127 107.13808599559407 80.14354277820127 Q 106.47646490184407 80.72948027820127 105.39248052684407 80.72948027820127 L 104.87978521434408 80.72948027820127 L 104.87978521434407 77.04295684070128 Q 103.93740240184407 77.06737090320128 103.44912115184407 77.51903105945128 Q 102.96083990184407 77.97069121570128 102.96083990184407 78.79100371570128 Q 102.96083990184407 79.65526152820127 103.32216802684408 80.49998809070127 L 102.59951177684408 80.49998809070127 Q 102.41396490184407 80.07030059070127 102.33339849559407 79.68699980945127 Q 102.25283208934407 79.30369902820128 102.25283208934407 78.76170684070128 Z  M 107.12099615184407 78.54198027820128 Q 107.12099615184407 77.89744902820128 106.70107427684407 77.51414824695128 Q 106.28115240184407 77.13084746570128 105.53896490184407 77.06248809070128 L 105.53896490184407 79.86033965320127 Q 106.30556646434407 79.86033965320127 106.71328130809407 79.51854277820127 Q 107.12099615184407 79.17674590320128 107.12099615184407 78.54198027820128 Z  M 108.84951177684405 43.81053496570128 Q 108.84951177684405 42.63377715320128 108.06582037059405 41.95262480945128 Q 107.28212896434405 41.27147246570128 105.91982427684405 41.27147246570128 Q 104.51845708934405 41.27147246570128 103.75429693309405 41.92821074695128 Q 102.99013677684405 42.58494902820128 102.99013677684405 43.80076934070128 Q 102.99013677684405 44.54783965320128 103.25869146434405 45.50487090320128 L 102.53115240184405 45.50487090320128 Q 102.25283208934405 44.76268340320129 102.25283208934405 43.67381621570129 Q 102.25283208934405 42.09666777820129 103.20986333934405 41.23973418445128 Q 104.16689458934405 40.38280059070128 105.92958990184405 40.38280059070128 Q 107.03310552684405 40.38280059070128 107.86318365184405 40.79539824695128 Q 108.69326177684405 41.20799590320128 109.14248052684405 41.98680449695128 Q 109.59169927684405 42.76561309070128 109.59169927684405 43.82030059070128 Q 109.59169927684405 44.94334746570128 109.18154302684405 45.78319121570128 L 108.46865240184405 45.43162871570128 Q 108.84951177684405 44.62108184070128 108.84951177684405 43.81053496570128 Z  M 105.03115240184405 51.55955840320128 Q 103.72255865184405 51.55955840320128 102.98769537059405 50.90037871570128 Q 102.25283208934405 50.24119902820128 102.25283208934405 49.07908965320128 Q 102.25283208934405 48.36131621570128 102.58974615184405 47.80467559070128 Q 102.92666021434405 47.24803496570128 103.55654302684405 46.94530059070128 Q 104.18642583934405 46.64256621570128 105.03115240184405 46.64256621570128 Q 106.33974615184405 46.64256621570128 107.06972662059405 47.29686309070128 Q 107.79970708934405 47.95115996570128 107.79970708934405 49.11326934070128 Q 107.79970708934405 50.23631621570128 107.05263677684405 50.89793730945128 Q 106.30556646434405 51.55955840320128 105.03115240184405 51.55955840320128 Z  M 105.03115240184405 47.48240996570128 Q 104.00576177684405 47.48240996570128 103.46865240184405 47.89256621570128 Q 102.93154302684405 48.30272246570128 102.93154302684405 49.09862090320128 Q 102.93154302684405 49.89451934070128 103.46621099559405 50.30711699695128 Q 104.00087896434405 50.71971465320128 105.03115240184405 50.71971465320128 Q 106.05166021434405 50.71971465320128 106.58144537059405 50.30711699695128 Q 107.11123052684405 49.89451934070128 107.11123052684405 49.08885527820128 Q 107.11123052684405 48.29295684070128 106.58876958934405 47.88768340320128 Q 106.06630865184405 47.48240996570128 105.03115240184405 47.48240996570128 Z  M 107.70205083934405 53.74217559070128 L 104.23037115184405 53.74217559070128 Q 103.57607427684405 53.74217559070128 103.25380865184405 54.04002715320128 Q 102.93154302684405 54.33787871570128 102.93154302684405 54.97264434070128 Q 102.93154302684407 55.81248809070128 103.39052740184407 56.20067168445128 Q 103.84951177684407 56.58885527820128 104.88955083934407 56.58885527820128 L 107.70205083934405 56.58885527820128 L 107.70205083934407 57.39940215320128 L 102.35048833934407 57.39940215320128 L 102.35048833934407 56.73045684070128 L 103.06826177684407 56.61326934070128 L 103.06826177684407 56.56932402820128 Q 102.67275396434407 56.32030059070128 102.46279302684407 55.87840605945128 Q 102.25283208934405 55.43651152820128 102.25283208934405 54.87010527820128 Q 102.25283208934405 53.89354277820128 102.71669927684405 53.40770293445128 Q 103.18056646434405 52.92186309070128 104.20107427684405 52.92186309070128 L 107.70205083934405 52.92186309070128 L 107.70205083934405 53.74217559070128 Z  M 102.35048833934407 59.92869902820128 L 102.35048833934407 59.11815215320128 L 109.94814458934407 59.11815215320128 L 109.94814458934407 59.92869902820128 L 102.35048833934407 59.92869902820128 Z  M 103.06826177684407 65.29002715320128 L 103.06826177684407 65.24608184070128 Q 102.25283208934407 64.68455840320128 102.25283208934407 63.56639434070128 Q 102.25283208934407 62.51658965320128 102.97060552684407 61.93309355945128 Q 103.68837896434407 61.34959746570128 105.01162115184407 61.34959746570128 Q 106.33486333934407 61.34959746570128 107.06728521434407 61.93553496570128 Q 107.79970708934407 62.52147246570128 107.79970708934407 63.56639434070128 Q 107.79970708934407 64.65526152820128 107.00869146434407 65.23631621570128 L 107.00869146434407 65.29979277820128 L 107.39443365184407 65.26561309070128 L 107.77041021434407 65.24608184070128 L 109.94814458934407 65.24608184070128 L 109.94814458934407 66.05662871570128 L 102.35048833934407 66.05662871570128 L 102.35048833934407 65.39744902820128 L 103.06826177684407 65.29002715320128 Z  M 102.93154302684407 63.66893340320128 Q 102.93154302684407 64.49901152820128 103.38320318309407 64.87254668445128 Q 103.83486333934407 65.24608184070128 104.84072271434407 65.24608184070128 L 105.01162115184407 65.24608184070128 Q 106.14931646434407 65.24608184070128 106.63515630809407 64.86766387195128 Q 107.12099615184407 64.48924590320128 107.12099615184407 63.65916777820128 Q 107.12099615184407 62.94627715320128 106.56679693309407 62.56785918445128 Q 106.01259771434407 62.18944121570128 105.00185552684407 62.18944121570128 Q 103.97646490184407 62.18944121570128 103.45400396434407 62.56541777820128 Q 102.93154302684407 62.94139434070128 102.93154302684407 63.66893340320128 Z " fill-rule="evenodd" fill="rgb(32,32,32)"/><path d=" M 28.71101360332392 37.915658346036594 L 30.93269329082392 37.915658346036594 Q 32.45124797832392 37.915658346036594 33.13728313457392 38.347787252286594 Q 33.82331829082392 38.779916158536594 33.82331829082392 39.722298971036594 Q 33.82331829082392 40.361947408536594 33.52302532207392 40.772103658536594 Q 33.22273235332392 41.182259908536594 32.72468547832392 41.265267721036594 L 32.72468547832392 41.314095846036594 Q 33.40339641582392 41.465463033536594 33.70368938457392 41.880502096036594 Q 34.00398235332392 42.295541158536594 34.00398235332392 42.984017721036594 Q 34.00398235332392 43.960580221036594 33.29841594707392 44.507455221036594 Q 32.59284954082392 45.054330221036594 31.38191204082392 45.054330221036594 L 28.71101360332392 45.054330221036594 L 28.71101360332392 37.915658346036594 Z  M 30.22468547832392 40.742806783536594 L 31.10359172832392 40.742806783536594 Q 31.71882610332392 40.742806783536594 31.99470500957392 40.552377096036594 Q 32.27058391582392 40.361947408536594 32.27058391582392 39.922494283536594 Q 32.27058391582392 39.512338033536594 31.97029094707392 39.334115377286594 Q 31.66999797832392 39.155892721036594 31.02058391582392 39.155892721036594 L 30.22468547832392 39.155892721036594 L 30.22468547832392 40.742806783536594 Z  M 30.22468547832392 41.943978658536594 L 30.22468547832392 43.804330221036594 L 31.21101360332392 43.804330221036594 Q 31.83601360332392 43.804330221036594 32.13386516582392 43.565072408536594 Q 32.43171672832392 43.325814596036594 32.43171672832392 42.832650533536594 Q 32.43171672832392 41.943978658536594 31.16218547832392 41.943978658536594 L 30.22468547832392 41.943978658536594 Z  M 38.46199016582392 39.072884908536594 Q 37.60749797832392 39.072884908536594 37.13874797832392 39.714974752286594 Q 36.66999797832392 40.357064596036594 36.66999797832392 41.504525533536594 Q 36.66999797832392 43.892220846036594 38.46199016582392 43.892220846036594 Q 39.21394329082392 43.892220846036594 40.28327922832392 43.516244283536594 L 40.28327922832392 44.785775533536594 Q 39.40437297832392 45.151986471036594 38.32038860332392 45.151986471036594 Q 36.76277141582392 45.151986471036594 35.93757610332392 44.207162252286594 Q 35.11238079082392 43.262338033536594 35.11238079082392 41.494759908536594 Q 35.11238079082392 40.381478658536594 35.51765422832392 39.544076314786594 Q 35.92292766582392 38.706673971036594 36.68220500957392 38.259896627286594 Q 37.44148235332392 37.813119283536594 38.46199016582392 37.813119283536594 Q 39.50202922832392 37.813119283536594 40.55183391582392 38.316048971036594 L 40.06355266582392 39.546517721036594 Q 39.66316204082392 39.356088033536594 39.25788860332392 39.214486471036594 Q 38.85261516582392 39.072884908536594 38.46199016582392 39.072884908536594 Z  M 44.83406047832392 39.072884908536594 Q 43.97956829082392 39.072884908536594 43.51081829082392 39.714974752286594 Q 43.04206829082392 40.357064596036594 43.04206829082392 41.504525533536594 Q 43.04206829082392 43.892220846036594 44.83406047832392 43.892220846036594 Q 45.58601360332392 43.892220846036594 46.65534954082392 43.516244283536594 L 46.65534954082392 44.785775533536594 Q 45.77644329082392 45.151986471036594 44.69245891582392 45.151986471036594 Q 43.13484172832392 45.151986471036594 42.30964641582392 44.207162252286594 Q 41.48445110332392 43.262338033536594 41.48445110332392 41.494759908536594 Q 41.48445110332392 40.381478658536594 41.88972454082392 39.544076314786594 Q 42.29499797832392 38.706673971036594 43.05427532207392 38.259896627286594 Q 43.81355266582392 37.813119283536594 44.83406047832392 37.813119283536594 Q 45.87409954082392 37.813119283536594 46.92390422832392 38.316048971036594 L 46.43562297832392 39.546517721036594 Q 46.03523235332392 39.356088033536594 45.62995891582392 39.214486471036594 Q 45.22468547832392 39.072884908536594 44.83406047832392 39.072884908536594 Z " fill-rule="evenodd" fill="rgb(0,136,25)"/><path d=" M 28.71101360332392 79.06973330142029 L 30.93269329082392 79.06973330142029 Q 32.45124797832392 79.06973330142029 33.13728313457392 79.50186220767029 Q 33.82331829082392 79.93399111392029 33.82331829082392 80.87637392642029 Q 33.82331829082392 81.51602236392029 33.52302532207392 81.92617861392029 Q 33.22273235332392 82.33633486392029 32.72468547832392 82.41934267642029 L 32.72468547832392 82.46817080142029 Q 33.40339641582392 82.61953798892029 33.70368938457392 83.03457705142029 Q 34.00398235332392 83.44961611392029 34.00398235332392 84.13809267642029 Q 34.00398235332392 85.11465517642029 33.29841594707392 85.66153017642029 Q 32.59284954082392 86.20840517642029 31.38191204082392 86.20840517642029 L 28.71101360332392 86.20840517642029 L 28.71101360332392 79.06973330142029 Z  M 30.22468547832392 81.89688173892029 L 31.10359172832392 81.89688173892029 Q 31.71882610332392 81.89688173892029 31.99470500957392 81.70645205142029 Q 32.27058391582392 81.51602236392029 32.27058391582392 81.07656923892029 Q 32.27058391582392 80.66641298892029 31.97029094707392 80.48819033267029 Q 31.66999797832392 80.30996767642029 31.02058391582392 80.30996767642029 L 30.22468547832392 80.30996767642029 L 30.22468547832392 81.89688173892029 Z  M 30.22468547832392 83.09805361392029 L 30.22468547832392 84.95840517642029 L 31.21101360332392 84.95840517642029 Q 31.83601360332392 84.95840517642029 32.13386516582392 84.71914736392029 Q 32.43171672832392 84.47988955142029 32.43171672832392 83.98672548892029 Q 32.43171672832392 83.09805361392029 31.16218547832392 83.09805361392029 L 30.22468547832392 83.09805361392029 Z  M 38.46199016582392 80.22695986392029 Q 37.60749797832392 80.22695986392029 37.13874797832392 80.86904970767029 Q 36.66999797832392 81.51113955142029 36.66999797832392 82.65860048892029 Q 36.66999797832392 85.04629580142029 38.46199016582392 85.04629580142029 Q 39.21394329082392 85.04629580142029 40.28327922832392 84.67031923892029 L 40.28327922832392 85.93985048892029 Q 39.40437297832392 86.30606142642029 38.32038860332392 86.30606142642029 Q 36.76277141582392 86.30606142642029 35.93757610332392 85.36123720767029 Q 35.11238079082392 84.41641298892029 35.11238079082392 82.64883486392029 Q 35.11238079082392 81.53555361392029 35.51765422832392 80.69815127017029 Q 35.92292766582392 79.86074892642029 36.68220500957392 79.41397158267029 Q 37.44148235332392 78.96719423892029 38.46199016582392 78.96719423892029 Q 39.50202922832392 78.96719423892029 40.55183391582392 79.47012392642029 L 40.06355266582392 80.70059267642029 Q 39.66316204082392 80.51016298892029 39.25788860332392 80.36856142642029 Q 38.85261516582392 80.22695986392029 38.46199016582392 80.22695986392029 Z  M 44.83406047832392 80.22695986392029 Q 43.97956829082392 80.22695986392029 43.51081829082392 80.86904970767029 Q 43.04206829082392 81.51113955142029 43.04206829082392 82.65860048892029 Q 43.04206829082392 85.04629580142029 44.83406047832392 85.04629580142029 Q 45.58601360332392 85.04629580142029 46.65534954082392 84.67031923892029 L 46.65534954082392 85.93985048892029 Q 45.77644329082392 86.30606142642029 44.69245891582392 86.30606142642029 Q 43.13484172832392 86.30606142642029 42.30964641582392 85.36123720767029 Q 41.48445110332392 84.41641298892029 41.48445110332392 82.64883486392029 Q 41.48445110332392 81.53555361392029 41.88972454082392 80.69815127017029 Q 42.29499797832392 79.86074892642029 43.05427532207392 79.41397158267029 Q 43.81355266582392 78.96719423892029 44.83406047832392 78.96719423892029 Q 45.87409954082392 78.96719423892029 46.92390422832392 79.47012392642029 L 46.43562297832392 80.70059267642029 Q 46.03523235332392 80.51016298892029 45.62995891582392 80.36856142642029 Q 45.22468547832392 80.22695986392029 44.83406047832392 80.22695986392029 Z " fill-rule="evenodd" fill="rgb(0,136,25)"/></svg>